<svg version="1.1" id="Layer_1" xmlns="http://www.w3.org/2000/svg" xmlns:xlink="http://www.w3.org/1999/xlink" x="0px" y="0px"
	 width="100%" viewBox="0 0 755 755" enable-background="new 0 0 755 755" xml:space="preserve">
<path fill="#1E2024" opacity="1.000000" stroke="none" 
	d="
M483.000000,756.000000 
	C322.000000,756.000000 161.500000,756.000000 1.000000,756.000000 
	C1.000000,504.333344 1.000000,252.666672 1.000000,1.000000 
	C252.666672,1.000000 504.333344,1.000000 756.000000,1.000000 
	C756.000000,252.666672 756.000000,504.333344 756.000000,756.000000 
	C665.166687,756.000000 574.333313,756.000000 483.000000,756.000000 
M463.024597,476.545624 
	C502.301453,492.245361 542.347229,492.852295 582.369019,480.748047 
	C610.957397,472.101746 631.363403,453.410370 642.422852,425.130890 
	C649.651123,406.647949 651.430969,387.356750 651.445435,367.789062 
	C651.493469,302.961609 651.463928,238.134109 651.464111,173.306625 
	C651.464111,171.565979 651.464172,169.825348 651.464172,168.152161 
	C627.111450,168.152161 603.526489,168.152161 579.681335,168.152161 
	C579.681335,170.450684 579.681335,172.430893 579.681335,174.411102 
	C579.681396,231.905914 579.824219,289.401398 579.559082,346.894958 
	C579.507080,358.169006 578.571960,369.544891 576.824097,380.682312 
	C573.570679,401.413574 562.814026,412.871155 543.373779,416.619446 
	C536.261292,417.990845 528.772583,418.217957 521.510498,417.857544 
	C498.200897,416.700653 484.054657,404.451630 480.121094,381.432251 
	C478.223755,370.329041 477.268005,358.936371 477.213776,347.668365 
	C476.933685,289.508331 477.083618,231.346176 477.083496,173.184769 
	C477.083496,171.436996 477.083496,169.689209 477.083496,168.157562 
	C452.736877,168.157562 429.145142,168.157562 405.187347,168.157562 
	C405.187347,170.280090 405.187347,172.082031 405.187347,173.883972 
	C405.187347,235.545074 405.098328,297.206421 405.264343,358.867065 
	C405.296570,370.840820 405.637360,382.891571 407.018066,394.769379 
	C411.276611,431.403229 427.918243,459.917267 463.024597,476.545624 
M108.803871,401.253540 
	C97.835396,428.361084 86.866920,455.468628 75.829597,482.746338 
	C102.065208,482.746338 127.497505,482.746338 153.073395,482.746338 
	C160.867035,461.749176 168.595993,440.926239 176.362762,420.001404 
	C215.609085,420.001404 254.593018,420.045105 293.576416,419.917633 
	C296.663055,419.907562 297.057037,421.781830 297.782867,423.745026 
	C304.580017,442.129150 311.437622,460.491760 318.061768,478.938141 
	C319.209045,482.133026 320.702698,483.121460 324.111176,483.094299 
	C346.772003,482.913788 369.434998,483.006073 392.097260,482.987671 
	C393.472809,482.986542 394.848236,482.796539 396.527069,482.671906 
	C396.118042,481.400726 395.917633,480.610657 395.615265,479.861755 
	C354.077118,376.983063 312.515991,274.113617 271.064911,171.199890 
	C269.885498,168.271622 268.268127,167.769485 265.507599,167.782974 
	C246.345108,167.876617 227.179688,167.987915 208.020798,167.708908 
	C203.893112,167.648804 202.361786,169.138428 200.926910,172.706482 
	C170.376190,248.675613 139.693863,324.591797 108.803871,401.253540 
z"/>
<path fill="#F0F0F3" opacity="1.000000" stroke="none" 
	d="
M462.699951,476.351898 
	C427.918243,459.917267 411.276611,431.403229 407.018066,394.769379 
	C405.637360,382.891571 405.296570,370.840820 405.264343,358.867065 
	C405.098328,297.206421 405.187347,235.545074 405.187347,173.883972 
	C405.187347,172.082031 405.187347,170.280090 405.187347,168.157562 
	C429.145142,168.157562 452.736877,168.157562 477.083496,168.157562 
	C477.083496,169.689209 477.083496,171.436996 477.083496,173.184769 
	C477.083618,231.346176 476.933685,289.508331 477.213776,347.668365 
	C477.268005,358.936371 478.223755,370.329041 480.121094,381.432251 
	C484.054657,404.451630 498.200897,416.700653 521.510498,417.857544 
	C528.772583,418.217957 536.261292,417.990845 543.373779,416.619446 
	C562.814026,412.871155 573.570679,401.413574 576.824097,380.682312 
	C578.571960,369.544891 579.507080,358.169006 579.559082,346.894958 
	C579.824219,289.401398 579.681396,231.905914 579.681335,174.411102 
	C579.681335,172.430893 579.681335,170.450684 579.681335,168.152161 
	C603.526489,168.152161 627.111450,168.152161 651.464172,168.152161 
	C651.464172,169.825348 651.464111,171.565979 651.464111,173.306625 
	C651.463928,238.134109 651.493469,302.961609 651.445435,367.789062 
	C651.430969,387.356750 649.651123,406.647949 642.422852,425.130890 
	C631.363403,453.410370 610.957397,472.101746 582.369019,480.748047 
	C542.347229,492.852295 502.301453,492.245361 462.699951,476.351898 
z"/>
<path fill="#F0F0F3" opacity="1.000000" stroke="none" 
	d="
M108.920517,400.885925 
	C139.693863,324.591797 170.376190,248.675613 200.926910,172.706482 
	C202.361786,169.138428 203.893112,167.648804 208.020798,167.708908 
	C227.179688,167.987915 246.345108,167.876617 265.507599,167.782974 
	C268.268127,167.769485 269.885498,168.271622 271.064911,171.199890 
	C312.515991,274.113617 354.077118,376.983063 395.615265,479.861755 
	C395.917633,480.610657 396.118042,481.400726 396.527069,482.671906 
	C394.848236,482.796539 393.472809,482.986542 392.097260,482.987671 
	C369.434998,483.006073 346.772003,482.913788 324.111176,483.094299 
	C320.702698,483.121460 319.209045,482.133026 318.061768,478.938141 
	C311.437622,460.491760 304.580017,442.129150 297.782867,423.745026 
	C297.057037,421.781830 296.663055,419.907562 293.576416,419.917633 
	C254.593018,420.045105 215.609085,420.001404 176.362762,420.001404 
	C168.595993,440.926239 160.867035,461.749176 153.073395,482.746338 
	C127.497505,482.746338 102.065208,482.746338 75.829597,482.746338 
	C86.866920,455.468628 97.835396,428.361084 108.920517,400.885925 
M211.533981,329.007904 
	C208.014709,338.212067 204.495453,347.416229 200.904922,356.806763 
	C224.797882,356.806763 248.053680,356.806763 271.836212,356.806763 
	C260.068329,326.133606 248.433899,295.808289 236.334656,264.271423 
	C227.839493,286.481262 219.842926,307.387604 211.533981,329.007904 
z"/>
<path fill="#1F2125" opacity="1.000000" stroke="none" 
	d="
M211.690170,328.650940 
	C219.842926,307.387604 227.839493,286.481262 236.334656,264.271423 
	C248.433899,295.808289 260.068329,326.133606 271.836212,356.806763 
	C248.053680,356.806763 224.797882,356.806763 200.904922,356.806763 
	C204.495453,347.416229 208.014709,338.212067 211.690170,328.650940 
z"/>
</svg>